<?xml version="1.0" standalone="no"?><!DOCTYPE svg PUBLIC "-//W3C//DTD SVG 1.1//EN" "http://www.w3.org/Graphics/SVG/1.1/DTD/svg11.dtd"><svg t="1588822861163" class="icon" viewBox="0 0 1024 1024" version="1.1" xmlns="http://www.w3.org/2000/svg" p-id="5476" xmlns:xlink="http://www.w3.org/1999/xlink" width="200" height="200"><defs><style type="text/css"></style></defs><path d="M1001.1648 122.9824C1016.4224 135.168 1024 152.6784 1024 175.5136l0 585.1136c0 21.4016-6.8608 38.8096-20.5824 52.5312C989.696 826.9824 972.1856 833.8432 950.8864 833.8432L73.1136 833.8432c-21.2992 0-38.8096-6.8608-52.5312-20.5824C6.8608 799.5392 0 782.0288 0 760.7296L0 175.5136C0 155.7504 7.5776 138.24 22.8352 122.9824c0-1.4336 0.7168-2.2528 2.2528-2.2528C37.376 108.544 53.3504 102.4 73.1136 102.4l877.6704 0c16.7936 0 32.768 6.144 48.0256 18.3296C1000.3456 120.7296 1001.1648 121.4464 1001.1648 122.9824zM950.8864 797.2864c4.608 0 7.5776-0.8192 9.1136-2.2528L699.392 536.6784c-9.1136-9.1136-9.1136-18.3296 0-27.4432 9.1136-9.1136 18.3296-9.1136 27.4432 0l258.2528 260.608c1.536-1.4336 2.2528-4.608 2.2528-9.1136L987.3408 175.5136c0-6.0416-0.7168-10.6496-2.2528-13.7216l-422.912 422.912C548.5568 598.4256 531.7632 605.2864 512 605.2864c-21.2992 0-38.8096-6.8608-52.5312-20.5824L38.8096 164.1472C37.376 167.2192 36.5568 171.008 36.5568 175.5136l0 585.1136c0 4.608 0.7168 7.68 2.2528 9.1136l258.2528-260.608c9.1136-9.1136 18.3296-9.1136 27.4432 0 9.1136 9.1136 9.1136 18.3296 0 27.4432L64 794.9312C65.536 796.4672 68.608 797.2864 73.1136 797.2864L950.8864 797.2864zM73.1136 138.9568 66.2528 138.9568l418.304 420.5568c6.144 6.144 14.4384 9.1136 25.1904 9.1136 10.6496 0 19.7632-3.072 27.4432-9.1136L955.392 138.9568 950.8864 138.9568 73.1136 138.9568z" p-id="5477" fill="#d8bd70"></path></svg>