<?xml version="1.0" standalone="no"?><!DOCTYPE svg PUBLIC "-//W3C//DTD SVG 1.1//EN" "http://www.w3.org/Graphics/SVG/1.1/DTD/svg11.dtd"><svg t="1588843147811" class="icon" viewBox="0 0 1024 1024" version="1.1" xmlns="http://www.w3.org/2000/svg" p-id="5145" data-spm-anchor-id="a313x.7781069.0.i12" xmlns:xlink="http://www.w3.org/1999/xlink" width="200" height="200"><defs><style type="text/css"></style></defs><path d="M220.743768 19.040458h784.215774v784.215774H220.743768z" fill="#cdcdcd" p-id="5146" data-spm-anchor-id="a313x.7781069.0.i10" class="selected"></path><path d="M822.29669 1004.959542c0-10.46179-8.578668-19.040458-19.040458-19.040457H38.080915V220.743768c0-10.46179-8.578668-19.040458-19.040457-19.040458S0 210.281978 0 220.743768v784.215774c0 10.46179 8.578668 19.040458 19.040458 19.040458h784.215774c10.46179 0 19.040458-8.578668 19.040458-19.040458zM782.332652 392.317123H631.892113v-150.440539c0-10.46179-8.578668-19.040458-19.040458-19.040458s-19.040458 8.578668-19.040458 19.040458v150.440539h-150.440539c-10.46179 0-19.040458 8.578668-19.040458 19.040458s8.578668 19.040458 19.040458 19.040457h150.440539v150.44054c0 10.46179 8.578668 19.040458 19.040458 19.040458s19.040458-8.578668 19.040458-19.040458v-150.44054h150.440539c10.46179 0 19.040458-8.578668 19.040458-19.040457-0.209236-10.671026-8.578668-19.040458-19.040458-19.040458z" fill="#515151" p-id="5147" data-spm-anchor-id="a313x.7781069.0.i8" class="selected"></path><path d="M220.743768 822.29669h784.215774c10.46179 0 19.040458-8.578668 19.040458-19.040458V19.040458c0-10.46179-8.578668-19.040458-19.040458-19.040458H220.743768c-10.46179 0-19.040458 8.578668-19.040458 19.040458v784.215774c0 10.46179 8.578668 19.040458 19.040458 19.040458z m18.831222-784.215775h746.344095v746.344095H239.57499V38.080915z" fill="#515151" p-id="5148" data-spm-anchor-id="a313x.7781069.0.i9" class=""></path></svg>