<?xml version="1.0" standalone="no"?><!DOCTYPE svg PUBLIC "-//W3C//DTD SVG 1.1//EN" "http://www.w3.org/Graphics/SVG/1.1/DTD/svg11.dtd"><svg t="1588865195511" class="icon" viewBox="0 0 1024 1024" version="1.1" xmlns="http://www.w3.org/2000/svg" p-id="4868" data-spm-anchor-id="a313x.7781069.0.i4" xmlns:xlink="http://www.w3.org/1999/xlink" width="200" height="200"><defs><style type="text/css"></style></defs><path d="M821.708 225H915c24.853 0 45 20.147 45 45s-20.147 45-45 45h-17.892C879.215 436.337 846.4 615.666 798.63 853.28c-12.936 62.963-68.19 108.018-132.276 108.018H357.4c-64.086 0-119.34-45.055-132.274-108.01-47.878-237.956-80.694-417.286-98.48-538.288H109c-24.853 0-45-20.147-45-45s20.147-45 45-45h94.191l14.672-71.409C228.579 101.435 274.487 64 327.733 64h369.434c53.245 0 99.153 37.435 109.87 89.591L821.708 225z m-91.88 0l-10.95-53.296C716.76 161.398 707.688 154 697.167 154H327.733c-10.522 0-19.594 7.398-21.712 17.704L295.071 225h434.757z m76.282 90H217.637c17.92 118.88 49.83 292.446 95.7 520.43 4.327 20.886 22.727 35.868 44.063 35.868h308.955c21.336 0 39.734-14.981 44.063-35.865 45.77-227.67 77.677-401.236 95.692-520.433zM371 718V462c0-60 90-60 90 0v256c0 60-90 60-90 0z m192 0V462c0-60 90-60 90 0v256c0 60-90 60-90 0z" p-id="4869" data-spm-anchor-id="a313x.7781069.0.i3" class="" fill="#d8bd70"></path></svg>