<?xml version="1.0" standalone="no"?><!DOCTYPE svg PUBLIC "-//W3C//DTD SVG 1.1//EN" "http://www.w3.org/Graphics/SVG/1.1/DTD/svg11.dtd"><svg t="1588868831860" class="icon" viewBox="0 0 1024 1024" version="1.1" xmlns="http://www.w3.org/2000/svg" p-id="11160" xmlns:xlink="http://www.w3.org/1999/xlink" width="200" height="200"><defs><style type="text/css"></style></defs><path d="M744.512 392.768l-290.688 289.216-41.92-41.664 290.688-289.28L744.512 392.768 744.512 392.768zM321.344 466.752l132.48 131.84-41.92 41.728-132.48-131.904L321.344 466.752 321.344 466.752zM849.216 946.624 174.784 946.624c-62.016 0-112.384-48.704-112.384-108.672L62.4 186.048c0-59.968 50.432-108.672 112.384-108.672l674.432 0c62.016 0 112.384 48.704 112.384 108.672l0 651.904C961.6 897.92 911.232 946.624 849.216 946.624L849.216 946.624zM905.408 186.048c0-29.952-25.216-54.336-56.192-54.336L174.784 131.712c-30.976 0-56.192 24.384-56.192 54.336l0 651.904c0 29.952 25.216 54.336 56.192 54.336l674.432 0c30.976 0 56.192-24.384 56.192-54.336L905.408 186.048 905.408 186.048z" p-id="11161" data-spm-anchor-id="a313x.7781069.0.i20" class="" fill="#f0e6d2"></path></svg>