<?xml version="1.0" standalone="no"?><!DOCTYPE svg PUBLIC "-//W3C//DTD SVG 1.1//EN" "http://www.w3.org/Graphics/SVG/1.1/DTD/svg11.dtd"><svg t="1588405686663" class="icon" viewBox="0 0 1024 1024" version="1.1" xmlns="http://www.w3.org/2000/svg" p-id="19349" xmlns:xlink="http://www.w3.org/1999/xlink" width="200" height="200"><defs><style type="text/css"></style></defs><path d="M136.9 611.7c-6.1 0-12.3-2-17.4-6.1-12.2-9.6-14.2-27.3-4.6-39.5l74.1-93.5c9.6-12.2 27.3-14.2 39.5-4.6s14.2 27.3 4.6 39.5L159 601c-5.6 7.1-13.8 10.7-22.1 10.7zM369.1 718c-2.5 0-4.9-0.3-7.4-1-15-4.1-23.8-19.5-19.7-34.5l32.3-118.2c4.1-15 19.5-23.8 34.5-19.7 15 4.1 23.8 19.5 19.7 34.5l-32.3 118.2c-3.4 12.5-14.7 20.7-27.1 20.7zM847.5 635.2c-8.3 0-16.5-3.7-22.1-10.7L751.3 531c-9.6-12.2-7.6-29.9 4.6-39.5 12.2-9.6 29.9-7.6 39.5 4.6l74.1 93.5c9.6 12.2 7.6 29.9-4.6 39.5-5.2 4.1-11.3 6.1-17.4 6.1zM638.8 718c-10.5 0-20.7-6-25.4-16.1l-55.8-118.2c-6.6-14-0.6-30.8 13.4-37.4 14-6.6 30.8-0.6 37.4 13.4l55.8 118.2c6.6 14 0.6 30.8-13.4 37.4-3.9 1.8-8 2.7-12 2.7z" fill="#8a8a8a" p-id="19350"></path><path d="M512 596.6c-90.5 0-179.6-23.6-257.8-68.1-75.8-43.2-140.1-105.3-185.9-179.6-8.2-13.2-4.1-30.5 9.2-38.7 13.2-8.2 30.5-4.1 38.7 9.2 85.3 138.4 233.3 221 395.8 221s310.5-82.6 395.9-221.1c8.2-13.2 25.5-17.3 38.7-9.2 13.2 8.2 17.3 25.5 9.2 38.7-45.9 74.3-110.1 136.4-185.9 179.6-78.3 44.7-167.4 68.2-257.9 68.2z" fill="#8a8a8a" p-id="19351"></path></svg>